<?xml version="1.0" standalone="no"?>
<!DOCTYPE svg PUBLIC "-//W3C//DTD SVG 1.1//EN" "http://www.w3.org/Graphics/SVG/1.1/DTD/svg11.dtd" >
<svg xmlns="http://www.w3.org/2000/svg">
<metadata>
<json>
<![CDATA[
{
	"fontFamily": "iconfont",
	"majorVersion": 1,
	"minorVersion": 0,
	"version": "Version 1.0",
	"fontId": "iconfont",
	"psName": "iconfont",
	"subFamily": "Regular",
	"fullName": "iconfont",
	"description": "Font generated by IcoMoon."
}
]]>
</json>
</metadata>
<defs>
<font id="iconfont" horiz-adv-x="1024">
<font-face units-per-em="1024" ascent="960" descent="-64" />
<missing-glyph horiz-adv-x="1024" />
<glyph unicode="&#x20;" horiz-adv-x="512" d="" />
<glyph unicode="&#xe900;" glyph-name="strategy" data-tags="存储策略" d="M491.52 342.016l68.672 22.272-46.336 46.4zM954.24 413.248c-20.16 85.888-79.36 138.304-164.416 161.088-6.912 1.856-10.304 4.736-12.032 11.904-32.256 133.248-158.848 222.016-295.616 204.544-112.192-14.336-187.072-77.824-225.728-183.424-5.184-14.272-11.456-20.8-26.112-25.024-53.568-15.424-99.328-43.136-133.12-89.024-45.376-61.696-46.336-173.888-0.96-241.088 41.792-61.952 98.56-97.344 172.928-104.064 0 0 537.664-2.112 548.48 0 136.064 26.496 159.168 169.024 136.576 265.088zM690.304 283.968c0-35.456-28.736-64.192-64.192-64.192h-256.512c-35.456 0-64.192 28.736-64.192 64.192v256.832c0 35.456 28.736 64.192 64.192 64.192h256.512c4.352 0 8.512-0.448 12.672-1.28l-46.912-46.912h-222.272c-8.832 0-16.064-7.168-16.064-16.064v-256.832c0-8.832 7.232-16.064 16.064-16.064h256.512c8.832 0 16.064 7.168 16.064 16.064v94.4l48.128 48.128v-142.464zM568.704 350.528v0l-101.76-33.088 33.024 101.696h0.064l184.256 184.32 68.672-68.672-184.256-184.256z" />
<glyph unicode="&#xe901;" glyph-name="pool" data-tags="存储池" d="M963.136 267.2h0.768l-131.072 560.448c-8.896 41.792-46.592 74.176-87.488 74.176h-470.016c-40.96 0-72.192-33.728-84.16-74.176l-131.136-560.448h0.768c-1.728-4.352-2.624-9.728-2.624-16.512v-182.336c0-40.96 33.216-74.176 74.176-74.176h759.232c40.96 0 74.176 33.216 74.176 74.176v182.336c0.064 6.784-0.896 12.224-2.624 16.512zM654.208 153.536h-284.416v129.344h-229.824l127.424 542.784h489.28l127.36-542.784h-229.824v-129.344zM815.36 441.792l-53.632-90.944h-499.392l-53.696 90.944h606.72zM312.192 508.928l-53.696 91.008h506.944l-53.632-90.944h-399.616zM362.048 667.072l-53.632 90.944h407.232l-53.632-90.944h-299.968z" />
<glyph unicode="&#xe902;" glyph-name="volumes" data-tags="存储卷" d="M506.516 890.916c-246.011 0-446.1-200.090-446.1-446.1 0-246.006 200.177-446.193 446.1-446.193s446.193 200.1 446.193 446.193c0 246.098-200.090 446.1-446.193 446.1zM506.516 46.5c-219.617 0-398.31 178.698-398.31 398.31 0 219.622 178.693 398.223 398.31 398.223 219.612 0 398.305-178.601 398.305-398.223 0.010-219.612-178.596-398.31-398.305-398.31zM377.027 385.889h259.082v-23.552h-259.082v23.552zM742.083 397.67c0-17.398 9.523-32.41 23.552-40.581v-65.408h-518.144v65.408c14.024 8.172 23.557 23.178 23.557 40.581 0 26.010-21.089 47.099-47.104 47.099v-23.562c13.010 0 23.552-10.532 23.552-23.542 0-13.020-10.542-23.562-23.552-23.562v-105.984h565.248v105.984c-13.010 0-23.557 10.542-23.557 23.562 0 13.010 10.547 23.542 23.557 23.542v23.562c-26.015 0-47.109-21.089-47.109-47.099zM377.027 527.196h259.082v-23.552h-259.082v23.552zM377.027 456.54h259.082v-23.552h-259.082v23.552zM223.939 621.404v-105.989c13.010 0 23.552-10.542 23.552-23.557 0-13.010-10.542-23.547-23.552-23.547v-23.552c26.015 0 47.104 21.084 47.104 47.094 0 17.393-9.528 32.41-23.557 40.576v65.428h518.144v-65.413c-14.024-8.166-23.552-23.178-23.552-40.576 0-26.010 21.089-47.094 47.104-47.094v23.552c-13.010 0-23.557 10.537-23.557 23.547 0 13.015 10.547 23.557 23.557 23.557v105.989h-565.243z" />
<glyph unicode="&#xe903;" glyph-name="overview" data-tags="概览" d="M421.701 894.967h-292.407c-34.991 0-63.36-28.29-63.36-63.18v-291.571c0-34.891 28.369-63.179 63.36-63.179h292.407c34.991 0 63.36 28.288 63.36 63.179v291.571c0 34.891-28.369 63.18-63.36 63.18zM421.701 419.477h-292.407c-34.991 0-63.36-28.288-63.36-63.178v-291.573c0-34.895 28.369-63.178 63.36-63.178h292.407c34.991 0 63.36 28.284 63.36 63.178v291.573c0 34.89-28.369 63.178-63.36 63.178zM895.993 894.967h-292.408c-34.989 0-63.357-28.29-63.357-63.18v-291.571c0-34.891 28.368-63.179 63.357-63.179h292.408c34.995 0 63.36 28.288 63.36 63.179v291.571c0 34.891-28.365 63.18-63.36 63.18zM895.993 419.477h-292.408c-34.989 0-63.357-28.288-63.357-63.178v-291.573c0-34.895 28.368-63.178 63.357-63.178h292.408c34.995 0 63.36 28.284 63.36 63.178v291.573c0 34.89-28.365 63.178-63.36 63.178z" />
<glyph unicode="&#xe904;" glyph-name="close1" data-tags="关闭" d="M512.186 895.020c-246.973 0-447.185-200.212-447.185-447.185 0-246.977 200.212-447.185 447.185-447.185s447.185 200.208 447.185 447.185c0 246.973-200.212 447.185-447.185 447.185zM683.465 329.257c7.278-7.275 7.278-19.072 0-26.35l-26.35-26.35c-7.278-7.275-19.076-7.275-26.35 0l-118.579 118.578-118.579-118.578c-7.275-7.275-19.072-7.275-26.35 0l-26.35 26.35c-7.278 7.278-7.278 19.076 0 26.35l118.579 118.579-118.58 118.579c-7.278 7.275-7.278 19.072 0 26.35l26.35 26.35c7.278 7.275 19.076 7.275 26.35 0l118.579-118.579 118.579 118.579c7.275 7.275 19.072 7.275 26.35 0l26.35-26.35c7.278-7.278 7.278-19.076 0-26.35l-118.578-118.579 118.579-118.579z" />
<glyph unicode="&#xe905;" glyph-name="close2" data-tags="关闭2" d="M596.722 448.001l328.218 328.218c23.299 23.299 23.299 61.422 0 84.721s-61.422 23.299-84.721 0l-328.218-328.218-328.22 328.218c-23.299 23.299-61.422 23.299-84.721 0s-23.299-61.422 0-84.721l328.22-328.218-328.22-328.22c-23.299-23.299-23.299-61.422 0-84.721s61.422-23.299 84.721 0l328.219 328.219 328.219-328.219c23.299-23.299 61.422-23.299 84.721 0s23.299 61.422 0 84.721l-328.218 328.22z" />
<glyph unicode="&#xe906;" glyph-name="map" data-tags="挂载" d="M964.267 627.2l-281.6-281.6-68.267 68.267 285.867 290.133c34.133 34.133 34.133 93.867 0 128s-93.867 34.133-128 0l-285.867-285.867-76.8 72.533c102.4 102.4 281.6 281.6 281.6 281.6 72.533 72.533 187.733 72.533 260.267 0l8.533-8.533c76.8-76.8 76.8-187.733 4.267-264.533zM256 59.733c-34.133-34.133-93.867-34.133-128 0s-34.133 93.867 0 128l285.867 285.867-72.533 76.8c-102.4-102.4-281.6-281.6-281.6-281.6-72.533-72.533-72.533-187.733 0-260.267l8.533-8.533c72.533-72.533 187.733-72.533 260.267 0l281.6 281.6-68.267 68.267-285.867-290.133z" />
<glyph unicode="&#xe907;" glyph-name="password" data-tags="密码" d="M800.264 594.025c0 27.727 0 79.037 0 79.369-1.689 158.021-133.201 286.606-293.126 286.606-160.494 0-291.957-128.916-293.214-287.653v-78.604c-73.213-5.663-131.015-67.005-131.015-141.713v-373.537c0-78.37 63.771-142.137 142.069-142.137h568.887c78.394 0 142.069 63.766 142.069 142.137v373.537c0 76.228-60.275 138.713-135.67 141.996v0zM263.306 672.063c1.022 127.44 112.54 236.055 241.86 236.055 128.897 0 244.358-108.327 245.712-235.344 0-2.284 0-49.791 0-77.275h-487.572v76.564zM892.064 78.492c0-47.030-51.212-95.248-98.198-95.248h-568.887c-46.981 0-96.178 48.218-96.178 95.248v373.537c0 47.030 38.26 99.485 85.266 99.485h568.864c47.006 0 109.135-52.455 109.135-99.485v-373.537h-0.001zM507.137 450.033c-65.028 0-117.838-52.264-117.838-116.557 0-36.614 17.618-70.71 46.864-92.633v-118.554c0-15.738 12.699-28.39 28.365-28.39h85.076c15.694 0 28.413 12.651 28.413 28.39v118.553c29.246 21.971 46.792 56.019 46.792 92.682 0.001 64.244-52.78 116.508-117.672 116.508v0zM550.34 273.322c-11.103-5.995-18.022-17.642-18.022-30.196v-108.094h-48.218v108.094c0 12.554-6.92 24.201-18.022 30.196-23.613 12.743-31.696 36.852-31.696 62.866 0 39.706 32.957 71.948 73.447 71.948 40.515 0 73.496-32.241 73.496-71.948-0.145-26.013-7.371-50.123-30.984-62.866v0z" />
<glyph unicode="&#xe908;" glyph-name="del" data-tags="删除" d="M916.8 697.984c-13.184 0-23.872-10.624-23.872-23.808v-642.944c0-26.24-21.312-47.616-47.616-47.616h-666.816c-26.304 0-47.616 21.376-47.616 47.616v642.944c0 13.184-10.688 23.808-23.808 23.808-11.136 0-20.416-7.488-23.040-17.792-0.256 0.128-0.576 0.256-0.768 0.384v-649.344c0-52.608 42.624-95.232 95.232-95.232h666.816c52.544 0 95.296 42.624 95.296 95.232v642.944c0 13.184-10.752 23.808-23.808 23.808v0zM345.216 126.464v523.904c0 13.184-10.688 23.808-23.808 23.808s-23.808-10.624-23.808-23.808v-523.904c0-13.248 10.688-23.808 23.808-23.808s23.808 10.56 23.808 23.808v0zM726.336 126.464v523.904c0 13.184-10.688 23.808-23.872 23.808-13.12 0-23.808-10.624-23.808-23.808v-523.904c0-13.248 10.688-23.808 23.808-23.808s23.872 10.56 23.872 23.808v0zM988.352 864.768h-274.24l-87.872 87.808c-4.992 5.056-11.648 7.488-18.24 7.36-0.256 0-0.512 0.064-0.768 0.064h-190.528c-0.192 0-0.448-0.064-0.64-0.064-6.656 0.128-13.248-2.304-18.24-7.36l-87.872-87.808h-274.24c-13.184 0-23.808-10.688-23.808-23.872 0-13.12 10.688-23.744 23.808-23.744h285.76c0.384 0 0.768 0 1.216 0 6.72-0.192 13.44 2.24 18.496 7.296l87.936 87.936h166.016l87.872-87.936c5.12-5.056 11.84-7.488 18.56-7.296 0.384 0 0.768 0 1.152 0h285.76c13.184 0 23.808 10.624 23.808 23.744-0.128 13.184-10.816 23.872-23.936 23.872v0zM535.744 126.464v523.904c0 13.184-10.688 23.808-23.872 23.808-13.12 0-23.872-10.624-23.872-23.808v-523.904c0-13.248 10.688-23.808 23.872-23.808s23.872 10.56 23.872 23.808v0z" />
<glyph unicode="&#xe909;" glyph-name="add" data-tags="添加用户组" d="M575.956 511.901v191.767h-127.854v-191.767h-191.972v-127.844h191.972v-192.128h127.854v192.128h192.236v127.844h-192.236zM447.931 960h-447.787v-447.948h63.99v383.958h383.796v63.99zM576.069 960h447.787v-447.948h-63.99v383.958h-383.796v63.99zM447.931-64h-447.787v447.949h63.99v-383.958h383.796v-63.991zM576.069-64h447.787v447.949h-63.99v-383.958h-383.796v-63.991z" />
<glyph unicode="&#xe90a;" glyph-name="user" data-tags="用户" d="M749.548 328.381l0.028 0.166 0.245 0.423 0.103-0.315zM512 848.298c-220.714 0-400.298-179.585-400.298-400.299s179.585-400.297 400.298-400.297 400.298 179.584 400.298 400.297c0 220.715-179.585 400.299-400.298 400.299zM512 93.388c-195.545 0-354.611 159.069-354.611 354.612 0 195.545 159.067 354.612 354.611 354.612s354.611-159.068 354.611-354.613c0-195.543-159.067-354.611-354.611-354.611zM589.946 441.203c37.601 25.174 62.379 68.011 62.379 116.66 0 77.5-62.827 140.327-140.328 140.327s-140.328-62.827-140.328-140.327c0-48.65 24.778-91.487 62.381-116.661-78.926-31.106-134.807-107.98-134.807-197.956 0-0.171 0.007-0.342 0.012-0.512 0-0.044-0.012-0.085-0.012-0.129 0-12.284 9.958-22.242 22.243-22.242s22.241 9.958 22.241 22.242c0 0.274-0.071 0.528-0.080 0.8 0.087 92.908 75.426 168.199 168.354 168.199 92.982 0 168.358-75.377 168.358-168.357 0-0.115 0.092-7.856 3.288-12.763 4.109-6.31 12.145-10.12 19.010-10.12 12.205 0 22.1 9.895 22.1 22.101 0 0.052-0.015 0.101-0.015 0.153 0.004 0.21 0.015 0.419 0.015 0.628 0.001 89.975-55.883 166.849-134.81 197.956zM511.997 462.951c-52.419 0-94.912 42.494-94.912 94.913s42.494 94.912 94.912 94.912 94.913-42.494 94.913-94.912-42.494-94.913-94.913-94.913z" />
<glyph unicode="&#xe90b;" glyph-name="username" data-tags="用户名" d="M213.6-48.576c0.288 0.064 0.448 0.064-0.352 0.064-0.768 0-0.64-0.064-0.32-0.064-0.16-0.064-0.032-0.064 0.32-0.064 0.384 0 0.544 0 0.352 0.064zM1020-17.472c2.368-4.416 4-9.184 4-14.528 0-17.664-14.624-32-32.64-32s-32.672 14.336-32.672 32h-0.8c-44.864 201.28-227.328 352-445.888 352-218.592 0-401.12-150.72-445.92-352h-0.832c0-17.664-14.656-32-32.64-32s-32.608 14.336-32.608 32c0 5.344 1.6 10.112 4 14.528 40.352 179.328 175.168 323.904 351.904 378.080-100.928 54.464-170.112 158.464-170.112 279.392 0 176.736 146.048 320 326.208 320 180.128 0 326.176-143.264 326.176-320 0-120.928-69.184-224.928-170.080-279.36 176.736-54.208 311.456-198.752 351.904-378.112v0zM772.928 640c0 141.376-116.832 256-260.928 256-144.16 0-260.96-114.624-260.96-256s116.832-255.968 260.96-255.968c144.096 0 260.928 114.592 260.928 255.968v0z" />
<glyph unicode="&#xe90c;" glyph-name="domain" data-tags="域管理" horiz-adv-x="1025" d="M480.883 760.546v0c7.545 7.543 17.945 12.485 29.148 12.485 11.688 0 22.088-4.942 29.118-12.485 7.543-7.545 12.203-17.404 12.203-28.864 0-11.43-4.66-21.573-12.203-29.118-7.030-7.286-17.43-11.944-29.118-11.944-11.203 0-21.603 4.658-29.148 11.944-7.515 7.545-11.69 17.688-11.69 29.118 0 11.458 4.173 21.319 11.69 28.864v0zM1024.532 448.243c0 68.666-14.319 135.22-39.007 195.285-26.002 62.153-63.98 119.361-111.301 166.167-46.808 47.321-103.5 85.811-166.426 111.303-60.321 24.975-126.387 39.003-195.798 39.003-68.926 0-134.19-13.257-194.77-38.488l-1.056-0.515c-62.922-25.49-119.074-63.98-166.394-111.303-47.349-46.806-84.782-104.014-111.301-166.167-24.977-60.065-38.492-126.619-38.492-195.285 0-69.151 13.515-135.188 38.492-196.055 26.518-62.924 63.952-119.359 111.301-166.422 47.321-47.321 103.472-85.557 166.394-111.045 60.354-25.203 126.645-38.72 195.828-38.72 56.922 0 112.074 8.831 163.825 26.518 47.063 15.601 90.726 38.749 130.786 66.552l5.718-3.887c19.776-11.714 43.178-15.346 67.093-9.114h1.030c23.659 6.772 43.178 21.86 54.61 42.148 11.171 19.746 15.086 43.663 9.37 67.61l-0.511 0.511c-2.603 10.402-6.776 19.233-11.975 28.092 27.578 39.005 49.924 83.181 65.525 129.476 17.426 51.751 27.060 107.132 27.060 164.338v0zM951.579 300.023v0c-13.778-41.321-33.522-80.069-57.725-114.931-17.947 7.803-38.749 10.66-59.009 5.201l-1.056-0.513c-23.917-6.229-42.639-21.831-54.608-41.607-11.428-19.746-15.060-44.206-8.829-67.61v-0.771c1.030-5.203 2.6-9.118 4.688-13.517-34.862-24.716-73.324-43.434-114.416-57.465-46.294-16.144-96.217-24.204-148.479-24.204-62.922 0-122.474 12.231-176.824 34.605-56.437 24.175-107.929 58.751-150.819 101.416-42.407 42.635-77.241 93.070-100.645 150.276-22.631 54.093-34.832 114.417-34.832 177.338 0 62.409 12.201 122.504 34.832 176.826 23.404 56.693 58.238 107.929 100.645 149.793 42.89 43.434 94.382 78.010 150.819 101.414l0.513 0.511c54.351 22.377 114.156 34.323 176.311 34.323 63.181 0 122.987-12.487 177.595-34.834 56.435-23.404 107.647-57.979 150.308-101.414 42.889-41.864 77.465-93.1 100.869-149.793 22.12-54.323 34.606-114.417 34.606-176.826-0.002-51.719-8.601-102.44-23.945-148.218v0zM601.213 743.14v0c-2.342 20.259-11.46 38.206-25.488 52.009-16.372 16.887-38.49 26.517-63.697 26.517-24.716 0-47.603-9.629-63.721-26.517-13.517-13.802-22.633-31.749-25.488-52.009-60.584-18.716-113.874-55.664-152.879-104.015-41.093-52.52-65.809-119.1-65.809-190.882 0-84.753 33.546-161.191 88.952-216.856l1.288-1.030c55.636-55.922 132.616-90.497 217.656-90.497 85.014 0 162.511 34.575 218.433 90.497h-0.802c56.18 55.379 90.758 132.616 90.758 217.886 0 71.783-24.688 138.364-66.554 190.882-38.231 48.351-91.553 85.299-152.648 104.015v0zM695.854 264.418v0 0 0c-47.317-47.063-111.816-75.666-183.826-75.666-71.521 0-136.53 28.603-183.337 75.666l-1.54 1.286c-45.781 47.349-74.382 111.303-74.382 182.537 0 60.866 20.802 116.504 55.92 160.708 30.917 39.52 73.067 69.181 121.675 85.298 4.428-9.887 10.4-18.716 17.945-26.003 16.118-16.118 39.003-26.517 63.721-26.517 25.207 0 47.323 10.398 63.697 26.517 7.547 7.286 14.030 16.116 18.205 26.003 48.377-16.116 91.012-45.777 122.216-85.298 35.118-44.206 55.636-99.843 55.636-160.708-0.002-72.266-29.122-137.273-75.929-183.823v0zM514.46 575.003v0c-66.065 0-120.415-54.606-120.415-120.673 0-66.037 54.351-120.645 120.415-120.645 66.809 0 120.902 54.61 120.902 120.645 0 66.067-54.093 120.673-120.902 120.673v0zM514.060 390.337v0c-17.348 0-33.89 6.8-45.35 18.274-12.716 12.246-17.774 29.663-17.774 46.164 0 35.202 27.92 63.579 63.124 63.579 36.060 0 64.437-29.262 64.437-63.579 0-35.592-28.377-64.437-64.437-64.437v0z" />
<glyph unicode="&#xe90d;" glyph-name="host" data-tags="主机" d="M384.147 257.129c0 0 13.481 191.163 191.674 191.674h127.785v424.751c-0.066 47.727-37.954 86.445-84.723 86.445h-533.43c-46.769 0-84.656-38.655-84.656-86.445v-935.884h191.676v127.782c-4.218 214.486 191.674 191.677 191.674 191.677v0zM128.582 832.153h447.24v-127.784h-447.24v127.784zM128.582 512.695v127.783h447.24v-127.783h-447.24zM831.388 193.237c0 0-24.47 198.383-191.676 191.677 0 0-189.438-4.347-191.674-191.677 0 0-187.905 12.206-191.674-127.784-0.128-153.849 127.783-127.782 127.783-127.782h511.133c0 0 126.759 3.896 127.783 127.782 6.134 158.198-191.674 127.784-191.674 127.784v0z" />
<glyph unicode="&#xe90e;" glyph-name="unmap" data-tags="未挂载-01" d="M68.267-8.533v0zM964.267 627.2l-221.867-221.867-68.267 68.267 226.133 230.4c34.133 34.133 34.133 93.867 0 128s-93.867 34.133-128 0l-226.133-226.133-76.8 72.533c102.4 102.4 221.867 221.867 221.867 221.867 72.533 72.533 187.733 72.533 260.267 0l8.533-8.533c76.8-76.8 76.8-187.733 4.267-264.533zM256 59.733c-34.133-34.133-93.867-34.133-128 0s-34.133 93.867 0 128l226.133 226.133-76.8 76.8c-102.4-102.4-221.867-221.867-221.867-221.867-72.533-72.533-72.533-187.733 0-260.267l8.533-8.533c72.533-72.533 187.733-72.533 260.267 0l221.867 221.867-68.267 68.267-221.867-230.4zM294.4 729.6l-64-64 494.933-499.2 64 64-494.933 499.2z" />
<glyph unicode="&#xe90f;" glyph-name="clone" data-tags="克隆" d="M311.842 636.392h633.365v-633.36h-633.365v633.36zM395.187 552.97v-468.792h466.519v468.792h-466.519zM76.269 893.491h633.359v-633.358h-633.359v633.358zM159.614 810.147v-468.797h466.598v468.797h-466.598z" />
<glyph unicode="&#xe910;" glyph-name="snap" data-tags="快照" d="M922.467 399.75h-80.393c-15.251 43.146-56.392 74.061-104.762 74.061h-74.062c-48.37 0-89.511-30.915-104.762-74.061h-80.39c-20.452 0-37.030-16.58-37.030-37.031v-259.215c0-20.452 16.579-37.031 37.030-37.031h444.368c20.452 0 37.031 16.579 37.031 37.031v259.215c0 20.452-16.579 37.031-37.031 37.031zM700.282 103.505c-81.805 0-148.123 66.316-148.123 148.122s66.318 148.123 148.123 148.123c81.806 0 148.122-66.317 148.122-148.123s-66.315-148.122-148.122-148.122zM700.283 325.689c-40.904 0-74.062-33.158-74.062-74.062 0-40.902 33.158-74.061 74.062-74.061s74.062 33.158 74.062 74.061c0 40.904-33.158 74.062-74.062 74.062zM939.276 832.408h-747.502c-10.32 0-18.687-8.367-18.687-18.688v-635.375c0-10.321 8.367-18.688 18.687-18.688h37.377c10.321 0 18.688 8.367 18.688 18.688v579.312h691.437c10.321 0 18.688 8.367 18.688 18.688v37.375c0 10.321-8.367 18.688-18.688 18.688zM831.149 910.384v18.223h-18.223c10.065 0 18.223-8.159 18.223-18.223zM62.707 290.786v-18.213h18.224c-10.061 0-18.219 8.154-18.224 18.213zM62.707 327.252v-36.466c0.005-10.059 8.163-18.213 18.224-18.213h274.176v72.892h-274.177c-10.060 0-18.218-8.153-18.223-18.213zM812.927 928.607h-36.446c-10.064 0-18.223-8.159-18.223-18.223v-380.581h72.891v380.581c0 10.064-8.158 18.223-18.222 18.223z" />
<glyph unicode="&#xe911;" glyph-name="rollback" data-tags="快照回滚" d="M233.6 60v0c12.8 22.4 40.8 29.6 64 17.6 59.2-31.2 125.6-47.2 193.6-47.2 118.4 0 228.8 48 309.6 136.8 65.6 72 104 165.6 108 262.4 5.6 119.2-38.4 231.2-121.6 315.2-79.2 79.2-184 122.4-296 122.4-100 0-194.4-36-269.6-99.2-4.8-4-4-11.2 0.8-14.4l43.2-33.6c11.2-8.8 16.8-23.2 14.4-37.6-0.8-5.6-3.2-11.2-7.2-15.2-4.8-6.4-12-10.4-20-12.8l-182.4-46.4c-11.2-3.2-24 0-33.6 7.2s-15.2 18.4-15.2 30.4v186.4c0 8 2.4 16 7.2 22.4 3.2 4.8 8 8 13.6 10.4 12.8 5.6 28 4 40-4.8l49.6-38.4c4-2.4 8.8-2.4 12 0.8 100.8 94.4 240.8 148 392 135.2 262.4-23.2 466.4-245.6 466.4-509.6 0-283.2-229.6-512-512-512-87.2 0-168 21.6-240 60-22.4 12-30.4 41.6-16.8 64zM512 412v219.2c0 33.6-27.2 61.6-61.6 61.6-33.6 0-61.6-27.2-61.6-61.6v-244.8c0-16.8 7.2-32 18.4-43.2l122.4-122.4c12-12 28-17.6 43.2-17.6 16 0 31.2 5.6 43.2 17.6 24 24 24 62.4 0 86.4l-104 104.8z" />
<glyph unicode="&#xe912;" glyph-name="expasion" data-tags="扩展" d="M421.126 832.485h-245.891c-26.571 0-48.11-21.539-48.11-48.11v-245.896c0-26.566 21.539-48.105 48.11-48.105h245.891c26.571 0 48.11 21.539 48.11 48.105v245.896c-0.001 26.571-21.54 48.11-48.11 48.11zM702.2 500.185c12.764-12.764 33.455-12.764 46.214 0l138.646 138.646c12.764 12.764 12.764 33.455 0 46.214l-138.646 138.652c-12.759 12.759-33.451 12.759-46.214 0l-138.651-138.652c-12.759-12.759-12.759-33.451 0-46.214l138.651-138.646zM421.126 404.846h-245.891c-26.571 0-48.11-21.539-48.11-48.11v-245.891c0-26.571 21.539-48.11 48.11-48.11h245.891c26.571 0 48.11 21.539 48.11 48.11v245.891c-0.001 26.571-21.54 48.11-48.11 48.11zM848.765 404.846h-245.891c-26.571 0-48.11-21.539-48.11-48.11v-245.891c0-26.571 21.539-48.11 48.11-48.11h245.891c26.566 0 48.11 21.539 48.11 48.11v245.891c0 26.571-21.544 48.11-48.11 48.11z" />
<glyph unicode="&#xe913;" glyph-name="storage" data-tags="存储" d="M848.896 164.608h-677.376c-37.291 0-67.669-31.488-67.669-70.144 0-38.912 30.379-70.315 67.669-70.315h677.291c37.376 0 67.755 31.403 67.755 70.315 0 38.656-30.464 70.144-67.755 70.144zM814.933 59.307c-18.775 0.284-33.886 15.57-33.886 34.386 0 0.271 0.003 0.542 0.009 0.812-0.001 19.245 15.103 34.947 33.877 34.947s33.877-15.701 33.877-34.987c0.004-0.205 0.007-0.446 0.007-0.688 0-18.832-15.1-34.138-33.853-34.469zM857.941 252.843c16.213 0 31.488-3.413 45.739-8.704l-104.107 622.080h-578.56l-104.277-622.165c14.336 5.205 29.611 8.704 45.739 8.704h695.552zM405.76 577.707c0 59.733 46.933 108.117 104.448 108.117s104.277-48.469 104.277-108.117c38.571 0 69.632-32.427 69.632-72.277 0-39.936-31.061-72.277-69.632-72.277h-208.64c-38.4 0-69.547 32.341-69.547 72.277s31.147 72.277 69.547 72.277zM874.667-64h-728.917c-80.469 0-145.749 67.669-145.749 151.211 0 16.469 3.157 31.915 7.851 46.763l123.733 737.707c5.186 46.296 42.788 82.341 89.341 85.065l578.478 0.012c45.568-1.707 82.432-36.949 89.173-82.773l124.075-739.84c4.608-14.848 7.851-30.379 7.851-46.933 0-83.541-65.365-151.211-145.835-151.211z" />
<glyph unicode="&#xe914;" glyph-name="analysis" data-tags="分析" d="M138.545 194.175h95.529c16.663 0 30.167 13.507 30.167 30.165v425.695c0 16.663-13.507 30.167-30.167 30.167h-95.529c-16.663 0-30.167-13.507-30.167-30.167v-425.693c-0.002-16.66 13.505-30.167 30.167-30.167zM445.436 194.175h95.529c16.663 0 30.167 19.745 30.167 44.104v622.395c0 24.361-13.507 44.108-30.167 44.108h-95.529c-16.66 0-30.167-19.747-30.167-44.108v-622.395c0-24.359 13.505-44.104 30.167-44.104zM752.327 194.175h95.529c16.663 0 30.167 18.346 30.167 40.987v578.355c0 22.637-13.507 40.985-30.167 40.985h-95.529c-16.663 0-30.167-18.348-30.167-40.985v-578.355c-0.002-22.639 13.505-40.987 30.167-40.987zM6.144 143.897h968.704v-50.278h-968.704v50.278z" />
<glyph unicode="&#xe915;" glyph-name="server" data-tags="服务器" d="M319.488 882.176l-96.256-102.4h452.608l108.544 102.4zM800.768 830.976l-100.352-102.4v-698.368l100.352 88.064zM223.232 728.576v-460.8h423.936v460.8h-423.936zM593.92 445.952h-305.152v40.96h305.152v-40.96zM593.92 554.496h-305.152v67.584h305.152v-67.584zM223.232 224.768v-208.896h423.936v208.896h-423.936zM452.608 67.072c-22.528 0-43.008 18.432-43.008 43.008 0 22.528 18.432 43.008 43.008 43.008s43.008-18.432 43.008-43.008c0-24.576-18.432-43.008-43.008-43.008z" />
<glyph unicode="&#xe916;" glyph-name="alarm" data-tags="告警闪电" d="M512 928c-262.4 0-480-217.6-480-480s217.6-480 480-480 480 217.6 480 480-217.6 480-480 480zM435.2 108.8l51.2 288h-166.4l262.4 384-44.8-288h166.4l-268.8-384z" />
<glyph unicode="&#xe917;" glyph-name="hostNode" data-tags="主机" d="M390.4 620.8h243.2v-38.4h-243.2zM390.4 544h243.2v-38.4h-243.2zM473.6 313.6c0-21.208 17.192-38.4 38.4-38.4s38.4 17.192 38.4 38.4c0 21.208-17.192 38.4-38.4 38.4s-38.4-17.192-38.4-38.4zM512 883.2c-243.2 0-435.2-198.4-435.2-435.2s198.4-435.2 435.2-435.2 435.2 198.4 435.2 435.2-192 435.2-435.2 435.2zM678.4 185.6h-326.4v486.4c0 19.2 19.2 38.4 38.4 38.4h249.6c19.2 0 38.4-19.2 38.4-38.4v-486.4z" />
<glyph unicode="&#xe918;" glyph-name="wraning" data-tags="警示" horiz-adv-x="1050" d="M971.413 703.98c-45.945 78.763-105.018 137.836-183.781 183.781s-164.090 65.636-255.98 65.636-177.217-19.691-255.98-65.636-137.836-105.018-183.781-183.781-65.636-164.090-65.636-255.98 19.691-177.217 65.636-255.98 105.018-137.836 183.781-183.781 164.090-65.636 255.98-65.636 177.217 19.691 255.98 65.636 137.836 105.018 183.781 183.781 65.636 164.090 65.636 255.98-19.691 177.217-65.636 255.98zM525.088 47.62c-32.818 0-59.072 26.254-59.072 59.072s26.254 59.072 59.072 59.072 59.072-26.254 59.072-59.072-26.254-59.072-59.072-59.072zM597.288 776.18l-13.127-466.016c0-32.818-26.254-59.072-59.072-59.072s-59.072 26.254-59.072 59.072l-13.127 466.016v6.564c0 39.382 32.818 72.2 72.2 72.2s72.2-39.382 72.2-78.763z" />
<glyph unicode="&#xe919;" glyph-name="management" data-tags="管理" d="M919.117 714.3l-161.703 161.703c-22.323 22.323-58.513 22.323-80.836 0l-161.703-161.703c-22.323-22.323-22.323-58.513 0-80.836l161.703-161.703c22.323-22.323 58.512-22.323 80.836 0l161.703 161.703c22.323 22.324 22.323 58.513 0 80.836v0zM716.997 512.181l-161.702 161.702 161.702 161.702 161.702-161.702-161.702-161.702zM373.984 845.389h-228.675c-31.585 0-57.169-25.583-57.169-57.169v-228.675c0-31.585 25.583-57.169 57.169-57.169h228.675c31.585 0 57.169 25.583 57.169 57.169v228.676c0 31.585-25.584 57.168-57.169 57.168v0zM373.984 388.038h-228.675c-31.585 0-57.169-25.583-57.169-57.169v-228.675c0-31.585 25.583-57.169 57.169-57.169h228.675c31.585 0 57.169 25.583 57.169 57.169v228.675c0 31.586-25.584 57.169-57.169 57.169v0zM831.334 388.038h-228.675c-31.585 0-57.169-25.583-57.169-57.169v-228.675c0-31.585 25.583-57.169 57.169-57.169h228.675c31.585 0 57.169 25.583 57.169 57.169v228.675c0 31.586-25.583 57.169-57.169 57.169v0z" />
<glyph unicode="&#xe91a;" glyph-name="manager" data-tags="管理员" d="M765.381 332.236c24.562 0 44.789 19.866 44.789 44.789 0 14.087-6.502 26.729-16.976 35.036l0.361 0.361c-34.314 26.729-72.601 48.401-113.778 64.293 52.735 45.15 85.965 111.972 85.965 186.379 0 135.811-110.166 245.977-245.977 245.977s-245.977-110.166-245.977-245.977c0-74.768 33.592-141.59 85.965-186.379-167.596-64.293-287.153-226.472-287.153-416.824v0c0-24.562 20.227-44.789 44.789-44.789s44.789 19.866 44.789 44.789c0 197.215 160.372 357.587 357.587 357.587 80.909 0 155.316-27.090 215.275-72.601 7.585-7.946 18.421-12.642 30.341-12.642v0zM519.766 506.695c-86.327 0-156.399 70.073-156.399 156.399s70.073 156.399 156.399 156.399c86.327 0 156.399-70.073 156.399-156.399s-70.434-156.399-156.399-156.399v0zM928.643 165h-21.672v63.932c0 38.287-39.732 68.989-88.494 68.989s-88.494-31.063-88.494-68.989l-0.361-63.932h-22.033c-12.281 0-21.672-9.752-21.672-19.505l-0.361-138.701c0-9.391 10.475-19.505 22.756-19.505h221.415c12.281 0 21.672 9.752 21.672 19.505l0.361 138.701c-0.722 9.391-10.836 19.505-23.117 19.505v0zM862.183 165h-88.494v66.461c0 19.144 20.227 32.147 44.789 32.147s44.066-13.003 44.066-32.147l-0.361-66.461z" />
<glyph unicode="&#xe91b;" glyph-name="arrow" data-tags="箭头-3" d="M512 883.2c-243.2 0-435.2-192-435.2-435.2 0-204.8 140.8-377.6 332.8-422.4v422.4h-108.8l211.2 326.4 224-332.8h-115.2v-416c192 51.2 332.8 217.6 332.8 422.4-6.4 243.2-198.4 435.2-441.6 435.2z" />
<glyph unicode="&#xe91c;" glyph-name="user1" data-tags="用户" d="M511.947 746.022c-83.313 0-150.861-67.549-150.861-150.866 0-83.313 67.543-150.861 150.861-150.861 83.311 0 150.865 67.549 150.865 150.861 0 83.317-67.554 150.866-150.865 150.866v0zM511.851 959.557c-282.645 0-511.778-229.133-511.778-511.778 0-282.653 229.133-511.778 511.778-511.778s511.777 229.127 511.777 511.778c0 282.645-229.132 511.778-511.777 511.778v0zM775.958 142.565c-11.009 1.248-22.74 18.858-22.74 18.858-20.072 128.506-120.312 226.299-241.271 226.299-120.954 0-221.194-97.793-241.267-226.299 0 0-4.622-17.352-22.746-18.858-42.32-3.541-37.222 18.858-37.222 18.858 3.894 117.967 79.76 218.322 186.54 260.936-55.874 37.186-92.744 100.667-92.744 172.796 0 114.572 92.873 207.445 207.439 207.445s207.437-92.873 207.437-207.445c0-72.13-36.864-135.61-92.737-172.796 106.773-42.613 182.645-142.969 186.533-260.936 0 0-2.618-22.801-37.222-18.858v0z" />
<glyph unicode="&#xe91d;" glyph-name="normal" data-tags="正常" d="M780.8 569.6l-307.2-307.2c-6.4-6.4-25.6-12.8-38.4-12.8s-32 6.4-38.4 12.8l-134.4 134.4c-19.2 19.2-19.2 44.8 0 64s44.8 19.2 64 0l115.2-115.2 288 288c19.2 19.2 44.8 19.2 64 0 6.4-25.6 6.4-51.2-12.8-64zM505.6 883.2c-243.2 0-435.2-198.4-435.2-435.2s198.4-435.2 435.2-435.2c243.2 0 435.2 198.4 435.2 435.2s-192 435.2-435.2 435.2z" />
<glyph unicode="&#xe91e;" glyph-name="HDD" data-tags="HDD" d="M972.8 232l-99.2 593.6c-6.4 38.4-41.6 70.4-81.6 70.4h-571.2c-38.4 0-75.2-30.4-81.6-70.4l-104-617.6c-11.2-20.8-17.6-44.8-17.6-70.4v-49.6c0-49.6 40-89.6 89.6-89.6h809.6c49.6 0 89.6 40 89.6 89.6v49.6c0 35.2-12.8 68.8-33.6 94.4zM932.8 209.6l9.6-57.6c3.2-25.6-1.6-51.2-14.4-65.6-6.4-8-14.4-11.2-22.4-11.2v-1.6h-798.4c-8 0-16 3.2-22.4 11.2-12.8 14.4-19.2 40-14.4 67.2l6.4 36.8c17.6 33.6 51.2 54.4 91.2 54.4h688c30.4 0 57.6-12.8 76.8-33.6zM182.4 817.6c3.2 19.2 20.8 33.6 38.4 33.6h572.8c16 0 33.6-14.4 36.8-32l91.2-547.2c-19.2 9.6-41.6 16-65.6 16h-688c-28.8 0-56-8-78.4-22.4l92.8 552zM508.8 222.4h33.6v-128h-33.6v128zM705.6 94.4h33.6v128h-33.6v-128zM608 94.4h32v128h-32v-128zM804.8 222.4v-128h33.6v128h-33.6zM211.2 94.4h33.6v128h-33.6v-128zM310.4 94.4h33.6v128h-33.6v-128zM409.6 94.4h33.6v128h-33.6v-128zM507.2 660.8h-70.4v-203.2h70.4c32 0 57.6 9.6 78.4 28.8s30.4 43.2 30.4 75.2c0 65.6-36.8 99.2-108.8 99.2zM552 512c-11.2-12.8-27.2-19.2-48-19.2h-24v132.8h24c19.2 0 35.2-6.4 48-17.6 11.2-11.2 17.6-27.2 17.6-46.4 0-20.8-6.4-36.8-17.6-49.6zM713.6 660.8h-70.4v-203.2h70.4c32 0 57.6 9.6 78.4 28.8s30.4 43.2 30.4 75.2c0 65.6-36.8 99.2-108.8 99.2zM758.4 512c-11.2-12.8-27.2-19.2-48-19.2h-24v132.8h24c19.2 0 35.2-6.4 48-17.6s17.6-27.2 17.6-46.4c0-20.8-6.4-36.8-17.6-49.6zM352 660.8h43.2v-203.2h-43.2v84.8h-86.4v-84.8h-43.2v203.2h43.2v-81.6h86.4v81.6z" />
<glyph unicode="&#xe91f;" glyph-name="SSD" data-tags="SSD" d="M974.4 232l-100.8 593.6c-6.4 40-41.6 70.4-81.6 70.4h-571.2c-40 0-75.2-30.4-81.6-70.4l-104-616c-11.2-20.8-17.6-44.8-17.6-70.4v-49.6c0-49.6 40-89.6 89.6-89.6h809.6c49.6 0 89.6 40 91.2 89.6v49.6c0 35.2-12.8 67.2-33.6 92.8zM934.4 209.6l9.6-56c3.2-25.6-1.6-51.2-14.4-65.6-6.4-8-14.4-11.2-22.4-11.2v-1.6h-800c-8 0-16 3.2-22.4 11.2-12.8 14.4-19.2 40-14.4 67.2l6.4 36.8c19.2 30.4 52.8 52.8 91.2 52.8h688c32 0 59.2-12.8 78.4-33.6zM182.4 817.6c3.2 19.2 20.8 33.6 38.4 33.6h572.8c16 0 33.6-14.4 36.8-32l92.8-547.2c-19.2 9.6-41.6 16-65.6 16h-689.6c-28.8 0-56-8-78.4-22.4l92.8 552zM806.4 224h32v-128h-32v128zM707.2 96h32v128h-32v-128zM608 96h33.6v128h-33.6v-128zM508.8 96h33.6v128h-33.6v-128zM409.6 96h33.6v128h-33.6v-128zM312 96h32v128h-32v-128zM212.8 96h32v128h-32v-128zM398.4 548.8c8-9.6 11.2-20.8 11.2-35.2 0-19.2-6.4-33.6-20.8-44.8-14.4-9.6-33.6-16-59.2-16-24 0-43.2 3.2-57.6 11.2v43.2c16-12.8 35.2-20.8 56-20.8 11.2 0 20.8 1.6 27.2 6.4s9.6 9.6 9.6 16c0 4.8-1.6 11.2-6.4 16s-17.6 11.2-36.8 19.2c-32 12.8-48 33.6-48 59.2 0 19.2 8 33.6 22.4 44.8s33.6 16 57.6 16c19.2 0 36.8-3.2 49.6-8v-40c-14.4 9.6-30.4 14.4-48 14.4-12.8 0-20.8-3.2-27.2-6.4s-9.6-9.6-9.6-16c0-4.8 1.6-9.6 6.4-14.4s16-9.6 32-17.6c20.8-8 33.6-17.6 41.6-27.2zM553.6 548.8c8-9.6 11.2-20.8 11.2-35.2 0-19.2-6.4-33.6-20.8-44.8-14.4-9.6-33.6-16-59.2-16-24 0-43.2 3.2-57.6 11.2v43.2c16-12.8 35.2-20.8 56-20.8 11.2 0 20.8 1.6 27.2 6.4s9.6 9.6 9.6 16c0 4.8-1.6 11.2-6.4 16s-17.6 11.2-36.8 19.2c-32 12.8-48 33.6-48 59.2 0 19.2 8 33.6 22.4 44.8s33.6 16 57.6 16c19.2 0 36.8-3.2 49.6-8v-40c-14.4 9.6-30.4 14.4-48 14.4-12.8 0-20.8-3.2-27.2-6.4s-9.6-9.6-9.6-16c0-4.8 1.6-9.6 6.4-14.4s16-9.6 32-17.6c20.8-8 33.6-17.6 41.6-27.2zM664 660.8h-70.4v-203.2h70.4c32 0 57.6 9.6 78.4 28.8s30.4 44.8 30.4 75.2c-1.6 65.6-36.8 99.2-108.8 99.2zM708.8 510.4c-11.2-12.8-28.8-17.6-48-17.6h-24v132.8h24c19.2 0 35.2-6.4 48-17.6s19.2-27.2 19.2-48c-1.6-19.2-8-36.8-19.2-49.6z" />
<glyph unicode="&#xe920;" glyph-name="fire" data-tags="iconfont-火" d="M511.992 928.129c-264.367 0-478.689-214.607-478.689-479.34s214.321-479.328 478.689-479.328c264.369 0 478.702 214.595 478.702 479.328s-214.333 479.34-478.702 479.34zM627.976 149.99c-43.039-18.619-145.473-38.175-240.106 6.45-123.068 58.070-156.251 161.44-136.657 252.562 14.497 67.249 64.206 120.234 68.745 187.406 20.193-35.368 30.907-61.97 33.181-98.885 64.298 75.713 122.693 178.149 108.325 270.83 0 0 117.413-34.249 161.987-218.573-8.842 36.538 35.626 78.25 21.22 108.571 43.273-30.321 286.76-377.087-16.695-508.361z" />
<glyph unicode="&#xe921;" glyph-name="addDisk" data-tags="添加盘" d="M900.8 36.8h-3.2c-12.8 0-22.4 9.6-22.4 22.4s9.6 22.4 22.4 22.4h3.2c3.2 0 6.4 0 8-1.6 1.6 1.6 3.2 4.8 6.4 4.8h1.6c3.2 3.2 8 3.2 12.8 3.2 8 0 14.4-3.2 19.2-9.6 6.4-9.6 4.8-22.4-4.8-28.8 0 0 0 0-1.6 0v0 0 0 0 0 0 0 0 0 0 0 0 0 0 0 0 0c0 0 0 0-1.6 0v0c0 0 0 0-1.6 0-3.2-1.6-6.4-3.2-11.2-3.2-3.2 0-4.8 0-8 1.6-6.4-8-12.8-11.2-19.2-11.2v0 0 0zM809.6 36.8h-3.2c-12.8 0-22.4 9.6-22.4 22.4s9.6 22.4 22.4 22.4h3.2c12.8 0 22.4-9.6 22.4-22.4-1.6-12.8-11.2-22.4-22.4-22.4v0 0zM716.8 36.8h-3.2c-12.8 0-22.4 9.6-22.4 22.4s9.6 22.4 22.4 22.4h3.2c12.8 0 22.4-9.6 22.4-22.4s-9.6-22.4-22.4-22.4v0 0zM625.6 36.8h-3.2c-12.8 0-22.4 9.6-22.4 22.4s9.6 22.4 22.4 22.4h3.2c12.8 0 22.4-9.6 22.4-22.4s-11.2-22.4-22.4-22.4v0 0zM532.8 36.8h-3.2c-12.8 0-22.4 9.6-22.4 22.4s9.6 22.4 22.4 22.4h3.2c12.8 0 22.4-9.6 22.4-22.4s-9.6-22.4-22.4-22.4v0 0zM441.6 36.8h-3.2c-12.8 0-22.4 9.6-22.4 22.4s9.6 22.4 22.4 22.4h3.2c12.8 0 22.4-9.6 22.4-22.4s-11.2-22.4-22.4-22.4v0 0zM348.8 36.8h-3.2c-12.8 0-22.4 9.6-22.4 22.4s9.6 22.4 22.4 22.4h3.2c12.8 0 22.4-9.6 22.4-22.4s-9.6-22.4-22.4-22.4v0 0zM257.6 36.8h-3.2c-12.8 0-22.4 9.6-22.4 22.4s9.6 22.4 22.4 22.4h3.2c12.8 0 22.4-9.6 22.4-22.4s-9.6-22.4-22.4-22.4v0 0zM166.4 36.8h-3.2c-12.8 0-22.4 9.6-22.4 22.4s9.6 22.4 22.4 22.4h3.2c12.8 0 22.4-9.6 22.4-22.4-1.6-12.8-11.2-22.4-22.4-22.4v0 0zM88 43.2c-3.2 0-6.4 1.6-9.6 3.2-1.6 1.6-3.2 1.6-4.8 3.2-9.6 6.4-11.2 19.2-4.8 28.8 4.8 6.4 11.2 9.6 19.2 9.6 4.8 0 8-1.6 12.8-3.2h1.6c6.4-6.4 9.6-20.8 3.2-30.4-3.2-8-11.2-11.2-17.6-11.2v0 0zM54.4 104c-11.2 0-20.8 8-22.4 19.2 0 1.6 0 3.2 0 4.8-1.6 11.2 8 22.4 19.2 24h1.6c11.2 0 20.8-8 22.4-20.8v-1.6c1.6-12.8-8-22.4-19.2-24 0-1.6-1.6-1.6-1.6-1.6v0 0zM62.4 188.8c-1.6 0-3.2 0-3.2 0-11.2 3.2-19.2 14.4-17.6 25.6v3.2c1.6 11.2 11.2 19.2 22.4 19.2 1.6 0 3.2 0 3.2 0 12.8-1.6 20.8-12.8 17.6-25.6v-3.2c-1.6-11.2-11.2-19.2-22.4-19.2v0 0zM78.4 280c-1.6 0-3.2 0-3.2 0-12.8 1.6-20.8 12.8-17.6 25.6v3.2c1.6 11.2 11.2 19.2 22.4 19.2 1.6 0 3.2 0 3.2 0 12.8-1.6 20.8-12.8 17.6-25.6v-3.2c-1.6-11.2-11.2-19.2-22.4-19.2v0 0zM94.4 369.6c-1.6 0-3.2 0-3.2 0-12.8 1.6-20.8 12.8-17.6 25.6v3.2c1.6 11.2 11.2 17.6 22.4 17.6 1.6 0 3.2 0 3.2 0 12.8-1.6 20.8-12.8 17.6-25.6v-3.2c-3.2-9.6-12.8-17.6-22.4-17.6v0 0zM108.8 460.8c-1.6 0-3.2 0-3.2 0-12.8 1.6-20.8 12.8-17.6 25.6v3.2c1.6 11.2 11.2 19.2 22.4 19.2 1.6 0 3.2 0 3.2 0 12.8-1.6 20.8-12.8 17.6-25.6v-3.2c-1.6-11.2-11.2-19.2-22.4-19.2v0 0zM124.8 552c-1.6 0-3.2 0-3.2 0-12.8 1.6-20.8 12.8-17.6 25.6v0 0 0 0 0 3.2c1.6 11.2 11.2 19.2 22.4 19.2 1.6 0 3.2 0 3.2 0 12.8-1.6 20.8-12.8 17.6-25.6v-3.2c-3.2-12.8-12.8-19.2-22.4-19.2v0 0zM139.2 641.6c-1.6 0-3.2 0-3.2 0-12.8 1.6-20.8 12.8-17.6 25.6v3.2c1.6 11.2 11.2 19.2 22.4 19.2 1.6 0 3.2 0 3.2 0 12.8-1.6 20.8-12.8 17.6-25.6v-3.2c-1.6-11.2-11.2-19.2-22.4-19.2v0 0zM155.2 732.8c-1.6 0-3.2 0-3.2 0-12.8 1.6-20.8 12.8-17.6 25.6v3.2c1.6 11.2 11.2 19.2 22.4 19.2 1.6 0 3.2 0 3.2 0 12.8-1.6 20.8-12.8 17.6-25.6v-3.2c-3.2-11.2-11.2-19.2-22.4-19.2v0 0zM172.8 814.4c-3.2 0-8 1.6-11.2 3.2-11.2 6.4-14.4 19.2-9.6 28.8 0 1.6 1.6 1.6 1.6 3.2v0 0c0 0 0 0 0 1.6 4.8 6.4 11.2 9.6 17.6 9.6 3.2 0 8-1.6 11.2-3.2 11.2-6.4 14.4-20.8 8-30.4v-1.6c-3.2-6.4-11.2-11.2-17.6-11.2v0 0zM232 846.4h-3.2c-12.8 0-22.4 9.6-22.4 22.4s9.6 22.4 22.4 22.4h3.2c12.8 0 22.4-9.6 22.4-22.4s-9.6-22.4-22.4-22.4v0 0zM323.2 846.4h-3.2c-12.8 0-22.4 9.6-22.4 22.4s9.6 22.4 22.4 22.4h3.2c12.8 0 22.4-9.6 22.4-22.4s-9.6-22.4-22.4-22.4v0 0zM416 846.4h-3.2c-12.8 0-22.4 9.6-22.4 22.4s9.6 22.4 22.4 22.4h3.2c12.8 0 22.4-9.6 22.4-22.4s-9.6-22.4-22.4-22.4v0 0zM507.2 846.4h-3.2c-12.8 0-22.4 9.6-22.4 22.4s9.6 22.4 22.4 22.4h3.2c12.8 0 22.4-9.6 22.4-22.4s-9.6-22.4-22.4-22.4v0 0zM600 846.4h-3.2c-12.8 0-22.4 9.6-22.4 22.4s9.6 22.4 22.4 22.4h3.2c12.8 0 22.4-9.6 22.4-22.4s-11.2-22.4-22.4-22.4v0 0zM691.2 846.4h-3.2c-12.8 0-22.4 9.6-22.4 22.4s9.6 22.4 22.4 22.4h3.2c12.8 0 22.4-9.6 22.4-22.4s-9.6-22.4-22.4-22.4v0 0zM784 846.4h-3.2c-12.8 0-22.4 9.6-22.4 22.4s9.6 22.4 22.4 22.4h3.2c12.8 0 22.4-9.6 22.4-22.4-1.6-12.8-11.2-22.4-22.4-22.4v0 0zM840 816c-8 0-16 3.2-19.2 11.2v1.6c-6.4 11.2-3.2 24 8 30.4 3.2 1.6 8 3.2 11.2 3.2 6.4 0 14.4-3.2 17.6-9.6 0 0 0 0 0-1.6v0 0 0 0 0 0 0 0 0c0 0 0-1.6 1.6-1.6v0c0 0 0 0 0-1.6 4.8-9.6 1.6-22.4-8-28.8-3.2-3.2-6.4-3.2-11.2-3.2v0 0zM857.6 732.8c-11.2 0-20.8 8-22.4 19.2v3.2c-1.6 12.8 6.4 24 17.6 25.6 1.6 0 3.2 0 3.2 0 11.2 0 19.2-8 22.4-17.6v-1.6c0-1.6 0-1.6 0-1.6 1.6-12.8-6.4-24-17.6-25.6 0-1.6-1.6-1.6-3.2-1.6v0 0zM873.6 643.2c-11.2 0-20.8 8-22.4 19.2v3.2c-1.6 12.8 6.4 24 17.6 25.6 1.6 0 3.2 0 3.2 0 11.2 0 20.8-8 22.4-19.2 0 0 0 0 0-1.6v-1.6c1.6-12.8-6.4-24-17.6-25.6-1.6 0-3.2 0-3.2 0v0 0zM888 552c-11.2 0-19.2 8-22.4 19.2v3.2c-1.6 12.8 6.4 24 17.6 25.6 1.6 0 3.2 0 3.2 0 11.2 0 19.2-8 22.4-17.6v-1.6c0-1.6 0-1.6 0-1.6 1.6-12.8-6.4-24-17.6-25.6 0-1.6-1.6-1.6-3.2-1.6v0 0zM904 462.4c-11.2 0-20.8 8-22.4 19.2v3.2c-1.6 12.8 6.4 24 17.6 25.6 1.6 0 3.2 0 3.2 0 11.2 0 20.8-8 22.4-19.2v-3.2c1.6-12.8-6.4-24-17.6-25.6-1.6 0-1.6 0-3.2 0v0 0zM918.4 371.2c-11.2 0-20.8 8-22.4 19.2v3.2c-1.6 12.8 6.4 24 17.6 25.6 1.6 0 3.2 0 3.2 0 11.2 0 19.2-8 22.4-17.6v-3.2c1.6-12.8-6.4-24-17.6-25.6 0-1.6-1.6-1.6-3.2-1.6v0 0zM934.4 280c-11.2 0-20.8 8-22.4 19.2v3.2c-1.6 12.8 6.4 24 17.6 25.6 1.6 0 3.2 0 3.2 0 11.2 0 20.8-8 22.4-19.2v-3.2c1.6-12.8-6.4-24-17.6-25.6 0 0-1.6 0-3.2 0v0 0zM950.4 190.4c-11.2 0-20.8 8-22.4 19.2v3.2c-1.6 12.8 6.4 24 17.6 25.6 1.6 0 3.2 0 3.2 0 11.2 0 19.2-8 22.4-17.6v-3.2c1.6-12.8-6.4-24-17.6-25.6-1.6-1.6-3.2-1.6-3.2-1.6v0 0zM960 104c0 0-1.6 0-3.2 0-12.8 1.6-20.8 12.8-19.2 24v1.6c1.6 11.2 11.2 20.8 22.4 20.8h1.6c12.8-1.6 20.8-11.2 20.8-24v0 0c0-1.6 0-1.6 0-3.2v0 0c-3.2-9.6-11.2-19.2-22.4-19.2v0 0zM910.4 4.8h-3.2c-12.8 0-22.4 9.6-22.4 22.4s9.6 22.4 22.4 22.4h3.2c1.6 0 3.2 0 4.8 0s3.2 1.6 4.8 1.6h1.6c1.6 0 3.2 0 4.8 0 9.6 0 19.2-6.4 22.4-17.6s-4.8-22.4-16-25.6c0 0-1.6 0-3.2 0v0 0h-1.6c0 0 0 0-1.6 0s-1.6 0-3.2 0-3.2 0-4.8 0c-1.6-3.2-4.8-3.2-8-3.2v0 0 0zM819.2 4.8h-3.2c-12.8 0-22.4 9.6-22.4 22.4s9.6 22.4 22.4 22.4h3.2c12.8 0 22.4-9.6 22.4-22.4s-11.2-22.4-22.4-22.4v0 0zM726.4 4.8h-3.2c-12.8 0-22.4 9.6-22.4 22.4s9.6 22.4 22.4 22.4h3.2c12.8 0 22.4-9.6 22.4-22.4s-9.6-22.4-22.4-22.4v0 0zM635.2 4.8h-3.2c-12.8 0-22.4 9.6-22.4 22.4s9.6 22.4 22.4 22.4h3.2c12.8 0 22.4-9.6 22.4-22.4s-11.2-22.4-22.4-22.4v0 0zM542.4 4.8h-3.2c-12.8 0-22.4 9.6-22.4 22.4s9.6 22.4 22.4 22.4h3.2c12.8 0 22.4-9.6 22.4-22.4s-9.6-22.4-22.4-22.4v0 0zM451.2 4.8h-3.2c-12.8 0-22.4 9.6-22.4 22.4s9.6 22.4 22.4 22.4h3.2c12.8 0 22.4-9.6 22.4-22.4s-9.6-22.4-22.4-22.4v0 0zM360 4.8h-3.2c-12.8 0-22.4 9.6-22.4 22.4s9.6 22.4 22.4 22.4h3.2c12.8 0 22.4-9.6 22.4-22.4-1.6-12.8-11.2-22.4-22.4-22.4v0 0zM267.2 4.8h-3.2c-12.8 0-22.4 9.6-22.4 22.4s9.6 22.4 22.4 22.4h3.2c12.8 0 22.4-9.6 22.4-22.4s-9.6-22.4-22.4-22.4v0 0zM176 4.8h-3.2c-12.8 0-22.4 9.6-22.4 22.4s9.6 22.4 22.4 22.4h3.2c12.8 0 22.4-9.6 22.4-22.4s-11.2-22.4-22.4-22.4v0 0zM91.2 8c-1.6 0-4.8 0-6.4 1.6 0 0 0 0-1.6 0s-1.6 0-3.2 1.6v0 0 0 0c0 0 0 0-1.6 0-11.2 4.8-16 16-11.2 27.2 4.8 9.6 12.8 14.4 22.4 14.4 3.2 0 4.8 0 8-1.6h1.6c11.2-3.2 17.6-16 12.8-28.8-3.2-8-11.2-14.4-20.8-14.4v0 0zM48 57.6c-9.6 0-19.2 6.4-20.8 16 0 1.6 0 3.2-1.6 4.8-1.6 11.2 6.4 22.4 17.6 24 1.6 0 3.2 0 3.2 0 11.2 0 20.8-8 22.4-19.2v-1.6c1.6-12.8-6.4-24-17.6-25.6-1.6 1.6-1.6 1.6-3.2 1.6v0 0zM48 140.8c-1.6 0-3.2 0-3.2 0-12.8 3.2-20.8 14.4-19.2 25.6v0 0 0 0 0c0 1.6 0 1.6 0 3.2 1.6 9.6 11.2 17.6 20.8 17.6 1.6 0 3.2 0 4.8 0 12.8-1.6 20.8-14.4 17.6-25.6v-1.6c0-11.2-9.6-19.2-20.8-19.2v0 0zM83.2 209.6c-6.4 0-11.2 1.6-16 6.4-8 8-8 22.4 0 30.4l1.6 1.6c6.4 6.4 11.2 8 17.6 8s11.2-1.6 16-6.4c8-9.6 8-22.4 0-32l-1.6-1.6c-6.4-4.8-11.2-6.4-17.6-6.4v0 0zM152 244.8c-11.2 0-20.8 8-22.4 19.2s6.4 22.4 19.2 24v0 0 0 0 0 0 0 0 0 0 0 0h1.6c1.6 0 1.6 0 3.2 0 11.2 0 20.8-8 22.4-19.2 1.6-12.8-6.4-24-19.2-25.6h-1.6c0 1.6-1.6 1.6-3.2 1.6v0 0zM243.2 246.4h-3.2c-12.8 0-22.4 9.6-22.4 22.4s9.6 22.4 22.4 22.4h3.2c12.8 0 22.4-9.6 22.4-22.4s-9.6-22.4-22.4-22.4v0 0zM336 246.4h-3.2c-12.8 0-22.4 9.6-22.4 22.4s9.6 22.4 22.4 22.4h3.2c12.8 0 22.4-9.6 22.4-22.4s-11.2-22.4-22.4-22.4v0 0zM427.2 246.4h-3.2c-12.8 0-22.4 9.6-22.4 22.4s9.6 22.4 22.4 22.4h3.2c12.8 0 22.4-9.6 22.4-22.4s-9.6-22.4-22.4-22.4v0 0zM520 246.4h-3.2c-12.8 0-22.4 9.6-22.4 22.4s9.6 22.4 22.4 22.4h3.2c12.8 0 22.4-9.6 22.4-22.4-1.6-12.8-11.2-22.4-22.4-22.4v0 0zM611.2 246.4h-3.2c-12.8 0-22.4 9.6-22.4 22.4s9.6 22.4 22.4 22.4h3.2c12.8 0 22.4-9.6 22.4-22.4s-9.6-22.4-22.4-22.4v0 0zM702.4 246.4h-3.2c-12.8 0-22.4 9.6-22.4 22.4s9.6 22.4 22.4 22.4h3.2c12.8 0 22.4-9.6 22.4-22.4s-9.6-22.4-22.4-22.4v0 0zM795.2 246.4h-3.2c-12.8 0-22.4 9.6-22.4 22.4s9.6 22.4 22.4 22.4h3.2c12.8 0 22.4-9.6 22.4-22.4s-9.6-22.4-22.4-22.4v0 0zM881.6 241.6c-1.6 0-3.2 0-4.8 0h-1.6c-11.2 3.2-19.2 14.4-17.6 27.2 1.6 9.6 11.2 17.6 20.8 17.6 1.6 0 3.2 0 4.8 0 0 0 0 0 1.6 0h3.2c11.2-3.2 19.2-14.4 16-27.2-3.2-9.6-12.8-17.6-22.4-17.6v0 0zM947.2 201.6c-6.4 0-12.8 3.2-17.6 8l-1.6 1.6c-8 9.6-6.4 24 1.6 32 4.8 3.2 9.6 6.4 14.4 6.4 6.4 0 11.2-1.6 16-6.4v0 0 0c0 0 0-1.6 1.6-1.6v0 0 0c8-9.6 6.4-22.4-3.2-30.4-1.6-8-6.4-9.6-11.2-9.6v0 0zM977.6 131.2c-11.2 0-20.8 8-22.4 20.8v1.6c-1.6 12.8 8 22.4 19.2 24 1.6 0 1.6 0 3.2 0 11.2 0 20.8-8 22.4-19.2v0 0c0-1.6 0-1.6 0-3.2 0 0 0 0 0-1.6 1.6-11.2-8-22.4-19.2-24-3.2 1.6-3.2 1.6-3.2 1.6v0 0zM974.4 49.6c-1.6 0-4.8 0-8 1.6-11.2 4.8-17.6 17.6-14.4 28.8v1.6c3.2 9.6 12.8 16 20.8 16 1.6 0 4.8 0 6.4-1.6 11.2-3.2 17.6-16 14.4-27.2 0 0 0 0 0-1.6v0 0 0 0c0-1.6 0-1.6-1.6-3.2-1.6-9.6-9.6-14.4-17.6-14.4v0 0z" />
<glyph unicode="&#xe922;" glyph-name="addbtn" data-tags="添加" d="M512-44.8c-272 0-492.8 220.8-492.8 492.8s220.8 492.8 492.8 492.8c272 0 492.8-220.8 492.8-492.8s-220.8-492.8-492.8-492.8v0zM768 484.8h-219.2v219.2h-73.6v-219.2h-217.6v-73.6h219.2v-219.2h73.6v219.2h217.6v73.6z" />
<glyph unicode="&#xe923;" glyph-name="screen" data-tags="显示器" d="M888 828.8h-752c-40 0-72-32-72-70.4v-480c0-40 32-70.4 70.4-70.4h278.4v-104h-139.2v-35.2h465.6v35.2h-131.2v104h278.4c40 0 70.4 32 70.4 70.4v480c3.2 38.4-28.8 70.4-68.8 70.4zM912 278.4c0-12.8-11.2-24-24-24h-752c-12.8 0-24 11.2-24 24v480c0 12.8 11.2 24 24 24h752c12.8 0 24-11.2 24-24v-480z" />
<glyph unicode="&#xe924;" glyph-name="bind" data-tags="绑定" horiz-adv-x="1027" d="M876.339 812.339c-199.022 199.022-526.445 199.022-725.467 0s-199.022-526.445 0-725.467c199.022-199.022 526.445-199.022 725.467 0s199.022 526.445 0 725.467zM385.204 160.702c-51.361-51.361-134.821-51.361-186.182 0l-93.091 93.091c-51.361 51.361-51.361 134.821 0 189.392l231.122 231.122c51.361 51.361 134.821 51.361 186.182 0l93.091-93.091c51.361-51.361 51.361-134.821 0-189.392l-73.831 57.781c16.050 32.1 9.63 70.621-19.26 99.511l-32.1 32.1c-35.31 35.31-89.881 35.31-125.191 0l-170.132-170.132c-35.31-35.31-35.31-89.881 0-125.191l38.52-41.73c35.31-35.31 67.411-38.52 118.771 9.63l54.571 60.991 64.201-60.991-86.671-93.091zM719.047 244.163c-51.361-51.361-134.821-51.361-186.182 0l-93.091 93.091c-51.361 51.361-51.361 134.821 0 189.392l67.411-67.411c-3.21-28.89-22.47-38.52 32.1-77.041l25.68-41.73c35.31-35.31 89.881-35.31 125.191 0l154.082 157.292c35.31 35.31 35.31 89.881 0 125.191l-32.1 32.1c-35.31 35.31-89.881 35.31-125.191 0l-28.89-32.1-60.991 60.991c54.571 54.571 51.361 54.571 51.361 54.571 51.361 51.361 134.821 51.361 186.182 0l96.301-96.301c0 0 73.831-102.721 0-189.392l-211.862-208.652z" />
<glyph unicode="&#xe925;" glyph-name="monitor" data-tags="监控" d="M836.335 911.172h-618.792c-75.905 0-137.509-61.604-137.509-137.509v-618.792c0-75.905 61.604-137.509 137.509-137.509h618.792c75.906 0 137.51 61.604 137.51 137.509v618.792c-0.001 75.906-61.604 137.509-137.51 137.509zM912.989 491.637v-343.23c0-38.817-31.447-70.191-70.191-70.191h-631.719c-38.817 0-70.191 31.375-70.191 70.191v631.72c0 38.817 31.375 70.191 70.191 70.191h631.719c38.745 0 70.191-31.375 70.191-70.191v-288.49zM876.006 493.764h-64.767l-45.171 115.439c-4.401 11.275-15.126 18.7-27.021 18.7h-0.069c-11.827 0-22.552-7.357-27.021-18.633l-122.314-310.014-60.16 448.556c-1.788 13.338-12.169 23.858-25.301 25.439-12.858 1.719-25.578-5.913-30.527-18.427l-126.371-323.423-74.46 59.816c-5.156 4.057-11.483 6.327-18.014 6.327h-76.936c-16.089 0-29.083-13.271-29.083-29.633 0-16.501 12.995-29.772 29.083-29.772h66.898l97.151-77.968c7.219-5.844 16.776-7.768 25.577-5.293 8.87 2.338 16.021 8.939 19.458 17.669l99.831 255.63 60.092-447.868c1.788-13.339 12.169-23.858 25.233-25.439 1.238-0.207 2.406-0.275 3.645-0.275 11.757 0 22.414 7.219 26.952 18.633l136.204 345.149 25.576-65.385c4.401-11.276 15.194-18.633 27.090-18.633h84.5c16.019-0.069 29.014 13.271 29.014 29.633-0.002 16.432-12.997 29.772-29.087 29.772z" />
<glyph unicode="&#xe926;" glyph-name="using" data-tags="已使用-4" horiz-adv-x="1489" d="M1484.578 436.102l-149.178 469.030c-7.399 23.397-28.996 38.294-52.192 38.094-5.499 0-11.098-0.8-16.498-2.7l-1201.421-381.943c-28.796-9.199-44.793-39.894-35.595-68.89l149.578-470.030c7.399-23.397 28.996-38.294 52.192-38.094 5.499 0 11.098 0.8 16.498 2.7l1200.421 381.743c29.196 9.199 45.493 40.794 36.195 70.090zM1461.882 407.406c-3.499-9.199-10.598-15.798-19.797-18.797l-1201.321-382.143c-7.699-2.5-15.998-1.9-23.696 1.9-8.099 4.099-13.598 11.698-16.298 20.397l-149.078 468.23c-5.199 16.498 3.899 34.195 20.397 39.394l1201.421 382.143c8.999 3 18.797 1.6 27.396-4.099 6.199-4.299 10.298-10.798 12.598-17.897l148.378-466.93c2.3-7.299 2.8-15.198 0-22.197zM425.736 506.491c4.699-17.397 9.799-34.195 14.998-50.492l17.497-52.692c6.499-19.997 13.598-39.294 20.797-57.891l-31.495-10.498-6.999 21.497-188.072-62.391 31.595-95.386c5.499-23.397 21.097-30.395 46.493-20.897l141.079 46.793c16.498 4.399 26.896 10.498 31.095 18.197 4.299 7.699 3.499 25.296-2.5 52.892 12.598-3.3 26.096-4.399 40.794-3.899 2.8-27.496 2.1-46.993-1.9-58.391-4.099-11.398-12.798-19.797-25.696-24.996l-190.971-63.291c-33.895-12.298-54.992-3-62.991 28.196l-40.594 122.582c-3.1 9.499-9.499 26.896-18.797 52.192l34.195 11.298c3.499-13.598 7.399-26.996 11.698-40.494l186.872 61.791-29.896 89.487-158.076-52.392c-21.997-7.299-46.393-15.798-73.589-25.996l-9.499 28.496c27.796 8.199 52.192 15.698 73.089 22.597l190.872 63.69zM625.907 530.088l65.19-196.571c6.799-20.897 14.698-42.994 23.596-66.49l-28.496-9.499c-6.499 23.097-13.298 44.593-19.797 64.69l-50.093 151.077c-4.299-31.895-7.299-52.992-9.199-63.191-7.599 6.999-17.097 11.698-28.496 14.198 5.699 17.697 10.798 44.293 15.398 80.188 4.399 35.595 4.599 64.99 0.2 87.887l36.994-1.9c-2.8-7.399-4.699-27.496-5.299-60.391zM743.789 589.579c-6.799 20.897-12.998 37.294-17.997 49.393 12.998 2.1 24.396 4.399 34.195 6.499 0.3-10.498 3.899-26.096 10.798-46.993l45.693 14.998c20.897 6.799 39.694 13.798 56.492 20.297l8.499-25.696c-18.297-5.099-37.494-10.798-57.391-17.497l-45.693-14.998 10.298-31.495 86.887 28.796c3.499-13.598 7.699-27.996 12.798-43.194 4.699-14.198 10.098-28.796 15.998-43.693l-88.387-29.296c8.199-31.095 11.098-57.391 8.899-79.288 34.495-14.898 80.888-13.298 139.079 4.899-5.099-6.799-7.399-17.697-6.699-32.295-51.292-14.598-98.685-14.598-142.579 0.4-14.198-30.096-35.195-55.992-62.791-77.688-3.1 6.299-12.198 11.298-26.996 14.698 32.595 22.497 54.092 46.493 64.69 71.989-21.497 10.798-44.793 24.096-70.19 39.894 4.699 4.699 9.699 12.198 14.698 22.297 22.097-15.798 43.394-27.396 63.491-34.195 0.3 17.997-2.7 38.094-8.899 60.291l-83.987-27.696c-4.099 15.498-8.699 30.995-13.798 45.993-5.099 15.198-10.098 28.796-14.998 40.994l85.487 28.296-10.298 31.495-46.993-15.498c-19.997-6.499-36.894-12.798-50.892-18.497l-8.499 25.696c13.598 3.499 30.395 8.499 50.492 14.998l48.593 16.098zM782.983 471.397l-14.198 42.694-56.991-18.797 14.198-42.694 56.991 18.797zM868.47 499.692l-14.198 42.694-58.391-19.297 14.198-42.694 58.391 19.297zM1051.743 452.899c0.2 20.097-1.9 39.394-6.499 57.891s-13.898 49.093-28.196 91.986c-14.198 42.694-25.996 76.789-35.295 102.085l255.062 84.487c8.199-27.796 15.798-52.692 23.097-74.689l61.891-186.572c6.499-19.997 5.099-34.195-4.699-42.694s-22.097-16.198-36.695-23.297c-6.699 13.598-13.598 23.397-20.797 29.396 19.297 5.399 30.195 9.799 32.795 13.298 2.7 3.499 2.8 8.499 0.5 15.198l-23.596 71.189-86.887-28.796 18.497-55.692c6.799-20.897 13.798-39.694 20.297-56.492l-31.495-10.298c-4.399 16.498-9.999 35.195-17.097 55.992l-18.797 56.991-81.188-26.896c9.699-42.094 10.598-87.687 2.7-136.68-12.598 3.1-23.596 4.299-32.795 3.499 5.899 19.997 9.099 39.994 9.199 60.091zM1119.233 657.169l-20.297 61.191-81.188-26.896 20.297-61.191 81.188 26.896zM1146.129 575.981l-19.797 59.991-81.288-26.996 19.797-59.991 81.288 26.996zM1234.716 695.463l-20.297 61.191-86.887-28.796 20.297-61.191 86.887 28.796zM1261.612 614.075l-19.797 59.991-86.887-28.796 19.797-59.991 86.887 28.796z" />
<glyph unicode="&#xe927;" glyph-name="sign" data-tags="盖章_30" d="M870.4 891.733c-37.547 20.48-78.507 34.133-122.88 34.133-81.92 0-160.427-40.96-204.8-116.053-30.72-54.613-37.547-116.053-23.893-174.080 0-13.653-3.413-23.893-6.827-37.547l-3.413-3.413s0-3.413-3.413-3.413c-6.827-10.24-17.067-20.48-27.307-23.893-30.72-6.827-54.613-23.893-71.68-51.2-3.413-6.827-6.827-13.653-6.827-20.48-20.48 10.24-44.373 17.067-64.853 17.067-47.787 0-92.16-23.893-119.467-68.267-37.547-64.853-13.653-150.187 51.2-187.733l354.987-204.8c20.48-13.653 44.373-17.067 68.267-17.067 47.787 0 92.16 23.893 119.467 68.267 37.547 64.853 17.067 146.773-47.787 184.32 6.827 3.413 10.24 10.24 13.653 17.067 13.653 23.893 17.067 54.613 6.827 85.333-3.413 13.653 0 23.893 6.827 37.547l3.413 3.413s0 3.413 3.413 3.413c6.827 10.24 17.067 20.48 27.307 27.307 54.613 17.067 105.813 54.613 136.533 105.813 64.853 112.64 23.893 259.413-88.747 324.267zM747.52 137.387c-13.653-20.48-34.133-34.133-58.027-34.133-10.24 0-23.893 3.413-34.133 10.24l-354.987 204.8c-17.067 10.24-27.307 23.893-30.72 40.96s-3.413 37.547 6.827 51.2c13.653 20.48 34.133 34.133 58.027 34.133 10.24 0 23.893-3.413 34.133-10.24s20.48-10.24 34.133-10.24c10.24 0 20.48 3.413 27.307 6.827 13.653 6.827 23.893 17.067 30.72 27.307l242.347-139.947c-6.827-10.24-10.24-23.893-10.24-37.547 0-20.48 13.653-40.96 30.72-54.613 30.72-17.067 40.96-58.027 23.893-88.747zM901.12 601.6c-20.48-37.547-54.613-64.853-98.987-75.093-3.413 0-6.827-3.413-10.24-3.413-23.893-10.24-44.373-30.72-58.027-54.613 0 0 0-3.413-3.413-3.413 0 0 0-3.413-3.413-3.413-13.653-20.48-17.067-44.373-17.067-68.267l-197.973 116.053c20.48 10.24 40.96 27.307 51.2 47.787 0 0 0 3.413 3.413 3.413 0 0 0 3.413 3.413 3.413 13.653 23.893 20.48 47.787 17.067 75.093 0 3.413 0 6.827-3.413 10.24-10.24 40.96-3.413 85.333 17.067 122.88 30.72 54.613 85.333 85.333 146.773 85.333 30.72 0 61.44-6.827 88.747-23.893 40.96-23.893 68.267-61.44 81.92-102.4 10.24-44.373 3.413-88.747-17.067-129.707zM798.72 775.68c-23.893 13.653-51.2 17.067-78.507 10.24s-47.787-23.893-61.44-47.787c-10.24-17.067-3.413-37.547 13.653-47.787 6.827-3.413 10.24-3.413 17.067-3.413 10.24 0 23.893 6.827 30.72 17.067 3.413 6.827 10.24 13.653 20.48 17.067s17.067 0 27.307-3.413c17.067-10.24 37.547-3.413 47.787 13.653 6.827 13.653 0 34.133-17.067 44.373zM648.533 4.267h-614.4c-17.067 0-34.133-13.653-34.133-34.133 0-17.067 13.653-34.133 34.133-34.133h614.4c17.067 0 34.133 13.653 34.133 34.133s-13.653 34.133-34.133 34.133z" />
<glyph unicode="&#xe928;" glyph-name="version" data-tags="版本信息" d="M510.762 579.62c33.776 0 61.164 28.148 61.164 62.88 0 34.725-27.389 62.877-61.164 62.877-33.778 0-61.166-28.153-61.166-62.877-0.001-34.732 27.388-62.88 61.166-62.88zM563.219 166.964h-104.917l6.398 350.636h92.121zM510.762 845.445c53.647 0 105.663-10.495 154.602-31.194 47.295-20.005 89.781-48.653 126.277-85.15 36.498-36.496 65.146-78.983 85.151-126.278 20.698-48.94 31.193-100.954 31.193-154.602s-10.496-105.664-31.193-154.603c-20.006-47.295-48.653-89.781-85.151-126.277-36.496-36.496-78.983-65.146-126.277-85.151-48.94-20.697-100.955-31.192-154.602-31.192-53.648 0-105.664 10.496-154.603 31.192-47.295 20.006-89.782 48.655-126.278 85.151-36.498 36.496-65.146 78.983-85.15 126.277-20.698 48.94-31.194 100.955-31.194 154.603s10.496 105.663 31.194 154.602c20.005 47.295 48.653 89.782 85.15 126.278 36.496 36.498 78.983 65.146 126.278 85.15 48.94 20.7 100.955 31.194 154.603 31.194zM510.762 896.627c-247.648 0-448.407-200.759-448.407-448.407s200.759-448.406 448.407-448.406 448.406 200.758 448.406 448.406c0 247.647-200.758 448.407-448.406 448.407v0z" />
<glyph unicode="&#xe929;" glyph-name="viewStrategy" data-tags="策略" d="M734.99 708.415h-365.733c-13.037 0-23.959-12.332-23.959-27.483v-516.184c0-15.151 10.57-27.483 23.959-27.483h365.733c51.442 0 93.019 47.566 93.019 106.76v357.982c0 58.841-41.577 106.408-93.019 106.408zM387.578 607.997h387.578v-49.328h-387.578v49.328zM658.883 484.676v-49.328h-267.782v49.328h267.782zM593.347 209.848l-16.56 19.731-90.552 96.542-83.153-85.972-35.587 34.177 117.331 121.559 1.762-1.762 1.762 1.762 31.359-33.473 0.705-0.705 77.868-83.153 168.42 140.938 31.711-37.701-205.064-171.944zM800.878 795.091h-357.982v-49.328h357.982c37.701 0 68.355-36.644 68.355-82.096v-362.21h49.328v362.562c0 72.231-52.852 131.072-117.683 131.072z" />
<glyph unicode="&#xe92a;" glyph-name="replica" data-tags="副本" d="M351.525 561.371h356.206c7.314 0 13.458 6.144 13.458 13.458v211.822h-382.976v-211.968c0-7.168 6.144-13.312 13.312-13.312zM842.313 786.651h-67.73v-211.968c0-36.864-29.989-66.999-66.999-66.999h-356.059c-36.864 0-66.999 29.989-66.999 66.999v211.968h-67.73c-32.329 0-58.514-26.185-58.514-58.514v-630.199c0-32.329 26.185-58.514 58.514-58.514h625.371c32.329 0 58.514 26.185 58.514 58.514v630.199c0.146 32.329-26.039 58.514-58.368 58.514z" />
<glyph unicode="&#xe92b;" glyph-name="restore" data-tags="恢复备份" d="M899.796 591.644c-17.842 18.36-35.943 36.848-53.786 55.208-35.426 36.202-70.594 72.404-105.891 108.606-24.695 25.341-49.39 50.683-73.956 75.895-1.164 1.293-2.586 2.586-3.749 3.749-7.24 7.499-18.618 10.473-28.703 7.628-12.671-3.491-21.721-15.386-21.721-28.444v-78.222h-282.634c-16.162 0-29.479-13.446-29.479-29.608 0-16.032 13.446-29.479 29.479-29.479h312.372c16.032 0 29.479 13.446 29.479 29.479v35.297c1.164-1.164 2.327-2.327 3.491-3.62 35.168-36.202 70.465-72.404 105.762-108.606 18.877-19.265 37.624-38.529 56.372-57.794l-39.693-36.848c-36.978-34.263-73.697-68.655-110.675-102.917-0.905-0.905-1.81-1.681-2.715-2.586v41.503c0 16.162-13.446 29.608-29.479 29.608h-248.501v74.99c0 10.473-5.56 20.17-14.61 25.471-11.378 6.853-26.246 4.655-35.814-4.655-18.877-18.747-37.883-37.366-56.76-55.984l-108.089-106.537c-21.851-21.592-43.83-43.184-65.681-64.776-0.259-0.259-0.388-0.388-0.517-0.776-5.56-5.301-8.663-13.059-8.663-20.816 0-8.404 3.362-14.739 8.663-20.945 16.162-19.523 32.453-38.788 48.614-58.311l97.099-116.105c23.919-28.574 47.968-57.147 71.758-85.851 1.939-2.327 3.879-4.525 5.689-6.853 6.594-7.887 19.265-10.214 28.703-7.628 12.671 3.491 21.721 15.386 21.721 28.444v89.212h223.806c16.162 0 29.479 13.446 29.479 29.608s-13.446 29.479-29.479 29.479h-253.285c-16.162 0-29.608-13.446-29.608-29.479v-37.366l-95.289 114.036c-19.394 23.143-38.917 46.545-58.311 69.818 12.541 12.412 25.083 24.695 37.624 37.107l108.089 106.537c5.301 5.172 10.602 10.473 15.903 15.644v-34.004c0-16.032 13.446-29.479 29.608-29.479h248.242v-79.903c0-10.343 5.56-20.17 14.739-25.471 11.636-6.853 25.988-4.396 35.814 4.655l60.897 56.501c36.978 34.392 73.826 68.784 110.675 103.176l53.269 49.519c11.507 11.119 10.731 30.642-0.259 41.891z" />
<glyph unicode="&#xe92c;" glyph-name="namespace" data-tags="命名空间" d="M729.6 580.267l25.6 55.467 55.467 25.6-55.467 25.6-25.6 55.467-25.6-55.467-55.467-25.6 55.467-25.6 25.6-55.467zM810.667 533.333v-384h-597.333v597.333h384v85.333h-384c-46.933 0-85.333-38.4-85.333-85.333v-597.333c0-46.933 38.4-85.333 85.333-85.333h597.333c46.933 0 85.333 38.4 85.333 85.333v384h-85.333z" />
<glyph unicode="&#xe92d;" glyph-name="refresh" data-tags="刷新-5" d="M511.582 896.587c-246.448 0-446.957-200.509-446.957-446.957s200.509-446.958 446.958-446.958 446.958 200.509 446.958 446.958-200.51 446.957-446.959 446.957zM509.002 208.14c-98.518 0-182.468 62.623-214.772 150.057l0.327 0.134c-2.008 4.037-3.383 8.423-3.383 13.237 0 16.647 13.494 30.143 30.143 30.143 13.39 0 24.359-8.877 28.289-20.955l0.423 0.173c23.27-65.442 85.646-112.503 158.973-112.503 93.107 0 168.846 75.739 168.846 168.846s-75.739 168.846-168.846 168.846c-20.432 0-39.874-3.981-58.013-10.669l21.249-40.743c2.487-2.678 4.017-6.283 4.017-10.243 0-8.418-8.404-14.922-15.366-15.070-0.102 0-0.207 0-0.309 0-0.22 0-0.428 0-0.648 0.013l-150.58 6.463c-5.372 0.234-10.23 3.31-12.717 8.093-2.487 4.77-2.237 10.509 0.648 15.056l80.89 127.18c2.885 4.533 8.006 7.152 13.365 6.961 5.372-0.234 10.228-3.312 12.715-8.095l18.58-35.625c26.629 10.855 55.683 16.963 86.169 16.963 126.338 0 229.131-102.791 229.131-229.131s-102.793-229.128-229.132-229.128z" />
<glyph unicode="&#xe92e;" glyph-name="logout" data-tags="退出登录" d="M892.79 490.354c-0.331-1.825-0.524-3.587-1.080-5.359-1.102-3.367-2.688-6.315-4.526-9.276-1.242-2.071-2.411-4.058-3.997-5.923-0.917-1.049-2.049-1.829-3.080-2.719l-118.145-202.374c-11.515-19.729-37.017-26.48-56.957-15.098-19.945 11.387-26.78 36.607-15.265 56.336l86.68 148.481h-366.729c-24.338 0-44.068 19.733-44.068 44.068 0 24.342 19.729 44.068 44.068 44.068h363.724l-93.811 162.49c-12.171 21.073-4.949 48.025 16.128 60.2 21.077 12.167 48.029 4.945 60.196-16.138l132.203-228.978c0.264-0.463 0.243-0.987 0.489-1.454 2.463-4.513 4.081-9.426 4.922-14.639 0.040-0.296 0.105-0.573 0.141-0.868 0.216-1.573 0.749-3.032 0.749-4.68 0-2.888-1.115-5.404-1.643-8.136zM585.96 806.97h-330.505c-12.171 0-22.038-9.867-22.038-22.038v-572.876c0-12.167 9.867-22.034 22.038-22.034h330.506c24.338 0 44.063-19.729 44.063-44.072 0-24.334-19.724-44.068-44.063-44.068h-396.608c-24.338 0-44.068 19.733-44.068 44.068v705.078c0 24.342 19.729 44.068 44.068 44.068h396.607c24.338 0 44.063-19.724 44.063-44.068 0.001-24.333-19.724-44.058-44.063-44.058z" />
<glyph unicode="&#xe92f;" glyph-name="edit" data-tags="修改密码" d="M1000.532 799.401c-7.718-27.583-14.593-53.215-33.612-68.653-166.782-135.092-300.417-302.864-451.674-453.218-3.962-3.962-8.738-7.457-11.68-12.059-64.284-100.255-176.714-113.043-275.105-150.763-21.147-8.126-54.176 29.535-47.856 51.904 17.855 63.003 35.331 126.121 54.556 188.714 3.233 10.574 13.369 19.777 21.903 27.962 143.83 138.15 288.446 275.485 431.577 414.363 34.137 33.117 63.73 70.982 94.955 107.072 42.147 48.701 101.101 52.633 147.034 7.457 27.642-27.175 61.254-50.827 67.604-93.701 0.816-5.534 1.718-11.098 2.592-16.633 2.068-1.281-2.388-1.195-0.291-2.446zM738.913 753.322c-113.015-113.196-248.342-248.79-383.646-384.408-20.456-42.099 3.065-65.923 26.575-89.757-446.29-463.615-310.098-330.299-173.895-196.994 579.318 621.934 553.366 648.323 530.967 671.159zM772.204 812.362c34.604-33.175 64.837-62.099 100.489-96.266 6.379 8.681 12.555 19.427 20.884 28.050 60.118 62.419 60.235 62.274-3.058 122.246-1.369 1.281-2.592 2.709-3.99 3.962-17.534 15.729-35.274 15.904-52.604 0-19.922-18.262-39.497-37.050-61.719-57.993zM255.985 190.062c553.748 202.498 579.867 213.24 605.978 223.995-543.53-172.586-558.733-154.701-576.646-133.614 68.822 242.364 58.828 212.307 48.87 182.233zM457.195-38.877c-92.799 0-185.598-0.146-278.368 0.058-50.827 0.146-95.712 13.865-129.82 54.847-22.458 27.030-28.836 58.458-28.894 91.78-0.291 184.637-1.020 369.302 0.204 553.968 0.67 99.12 61.866 158.19 161.161 158.772 100.285 0.582 200.598 0 300.883 0.204 21.962 0.030 42.933-1.69 45.729-29.447 2.038-20.302-14.563-30.554-47.127-30.554-97.488-0.087-194.976 0.146-292.466-0.087-69.73-0.175-109.314-40.195-109.343-110.013-0.045-90.153-0.070-197.194-0.070-304.242 0-80.691 0.014-161.378 0.043-242.063-0.003-43.053 37.104-82.375 92.737-82.608 190.288-0.699 380.546-0.582 570.833-0.116 45.031 0.116 74.217 32.215 74.39 80.944 0.495 121.868 0.261 243.678 0.437 365.546 0.030 9.291-2.127 21.029 2.506 27.35 7.865 10.661 21.233 25.516 30.641 24.409 9.874-1.136 18.554-18.466 26.157-29.797 2.592-3.903 0.582-10.953 0.582-16.603 0.030-120.935 0.175-241.813-0.058-362.779-0.175-101.799-48.147-149.481-150.121-149.597-90.061-0.058-180.035 0.030-270.038 0.030z" />
<glyph unicode="&#xe930;" glyph-name="migrate" data-tags="迁移" d="M826.174 699.127h-262.048l-149.369 77.578h-218.457c-29.148 0-52.811-23.678-52.811-52.784v-550.122c0-29.14 23.663-52.855 52.811-52.855h629.875c29.148 0 52.816 23.715 52.816 52.855v472.508c0 29.142-23.668 52.821-52.816 52.821zM824.127 174.84l-625.775-1.042-2.052 549.007h204.816l149.364-77.576 273.648 1.075v-471.465zM289.2 440.486v-55.119h275.876l0.073-67.84 168.13 95.507-168.277 95.257 0.037-67.804z" />
<glyph unicode="&#xe931;" glyph-name="folder-plus" data-tags="folder-plus, directory, folder-add" d="M576 704l-128 128h-448v-832h1024v704h-448zM704 256h-128v-128h-128v128h-128v128h128v128h128v-128h128v-128z" />
<glyph unicode="&#xe932;" glyph-name="manage" data-tags="管理文件夹" d="M657.067 388.267h-29.867c-4.267-17.067-8.533-34.133-21.333-46.933l21.333-21.333c4.267-4.267 4.267-8.533 0-12.8l-12.8-12.8c-4.267-4.267-8.533-4.267-12.8 0l-21.333 21.333c-12.8-8.533-29.867-17.067-46.933-21.333v-29.867c0-4.267-4.267-8.533-8.533-8.533h-17.067c-4.267 0-8.533 4.267-8.533 8.533v29.867c-17.067 4.267-34.133 8.533-46.933 21.333l-21.333-21.333c-4.267-4.267-8.533-4.267-12.8 0l-12.8 12.8c-4.267 4.267-4.267 8.533 0 12.8l21.333 21.333c-8.533 12.8-17.067 29.867-21.333 46.933h-29.867c-4.267 0-8.533 4.267-8.533 8.533v17.067c0 4.267 4.267 8.533 8.533 8.533h29.867c4.267 17.067 8.533 34.133 21.333 46.933l-21.333 21.333c-4.267 4.267-4.267 8.533 0 12.8l12.8 12.8c4.267 4.267 8.533 4.267 12.8 0l21.333-21.333c12.8 8.533 29.867 17.067 46.933 21.333v29.867c0 4.267 4.267 8.533 8.533 8.533h17.067c4.267 0 8.533-4.267 8.533-8.533v-29.867c17.067-4.267 34.133-8.533 46.933-21.333l21.333 21.333c4.267 4.267 8.533 4.267 12.8 0l12.8-12.8c4.267-4.267 4.267-8.533 0-12.8l-21.333-21.333c8.533-12.8 17.067-29.867 21.333-46.933h29.867c4.267 0 8.533-4.267 8.533-8.533v-17.067c0-4.267-4.267-8.533-8.533-8.533zM512 482.133c-42.667 0-76.8-34.133-76.8-76.8s34.133-76.8 76.8-76.8c42.667 0 76.8 34.133 76.8 76.8s-34.133 76.8-76.8 76.8zM827.733 699.733h-260.267l-149.333 76.8h-217.6c-29.867 0-51.2-25.6-51.2-51.2v-550.4c0-29.867 25.6-51.2 51.2-51.2h631.467c29.867 0 51.2 25.6 51.2 51.2v473.6c-4.267 25.6-25.6 51.2-55.467 51.2zM823.467 174.933h-627.2v550.4h204.8l149.333-76.8h273.067v-473.6z" />
<glyph unicode="&#xe933;" glyph-name="download" data-tags="folder-download, directory, folder-save" d="M576 704l-128 128h-448v-832h1024v704h-448zM512 96l-224 224h160v256h128v-256h160l-224-224z" />
<glyph unicode="&#xe9bb;" glyph-name="list" data-tags="list, todo, bullet, menu, options" d="M384 896h640v-128h-640v128zM384 512h640v-128h-640v128zM384 128h640v-128h-640v128zM0 832c0 70.692 57.308 128 128 128s128-57.308 128-128c0-70.692-57.308-128-128-128s-128 57.308-128 128zM0 448c0 70.692 57.308 128 128 128s128-57.308 128-128c0-70.692-57.308-128-128-128s-128 57.308-128 128zM0 64c0 70.692 57.308 128 128 128s128-57.308 128-128c0-70.692-57.308-128-128-128s-128 57.308-128 128z" />
</font>
</defs>
</svg>
